<?xml version="1.0" standalone="no"?>
<!DOCTYPE svg PUBLIC "-//W3C//DTD SVG 20010904//EN"
 "http://www.w3.org/TR/2001/REC-SVG-20010904/DTD/svg10.dtd">
<svg version="1.0" xmlns="http://www.w3.org/2000/svg"
 width="700.000000pt" height="700.000000pt" viewBox="0 0 700.000000 700.000000"
 preserveAspectRatio="xMidYMid meet">
<metadata>
Created by potrace 1.11, written by Peter Selinger 2001-2013
</metadata>
<g transform="translate(0.000000,700.000000) scale(0.100000,-0.100000)"
fill="#000000" stroke="none">
<path d="M0 3500 l0 -3500 3500 0 3500 0 0 3500 0 3500 -3500 0 -3500 0 0
-3500z m2715 2073 c79 -19 178 -72 243 -129 l53 -47 31 29 c16 16 39 46 49 67
18 35 22 37 69 37 28 0 50 -2 50 -4 0 -5 -117 -579 -125 -613 -5 -20 -12 -23
-54 -23 l-48 0 -7 108 c-13 207 -48 306 -139 387 -70 64 -141 89 -252 89 -84
0 -96 -2 -168 -36 -130 -62 -221 -161 -306 -335 -99 -200 -150 -416 -151 -629
0 -126 14 -202 51 -280 88 -187 330 -270 547 -188 141 53 250 160 337 334 15
30 28 56 30 58 1 1 23 -7 48 -18 l46 -21 -24 -55 c-45 -101 -97 -178 -174
-254 -155 -154 -345 -220 -594 -207 -206 11 -338 65 -457 186 -134 136 -182
264 -182 486 0 72 5 159 11 195 65 369 273 668 555 801 178 83 384 106 561 62z
m-1183 -19 c3 -3 0 -26 -6 -52 l-12 -47 -88 -7 c-113 -8 -130 -20 -155 -105
-51 -173 -341 -1275 -341 -1295 1 -52 35 -68 149 -68 50 0 91 -3 91 -7 0 -5
-6 -28 -14 -53 l-13 -45 -406 -3 -406 -2 14 47 c8 27 15 51 15 54 0 4 36 9 81
11 72 3 83 6 103 29 16 18 67 195 195 674 95 358 176 666 178 685 8 58 -17 72
-136 78 -67 3 -98 8 -96 16 2 6 9 30 15 54 l11 42 408 0 c224 0 410 -2 413 -6z
m3408 -6 c0 -12 -105 -484 -116 -520 -4 -14 -16 -18 -53 -18 l-49 0 6 109 c4
100 3 112 -20 162 -64 139 -150 174 -415 167 -145 -3 -153 -4 -178 -28 -35
-32 -34 -29 -117 -339 -39 -146 -73 -272 -76 -280 -4 -12 11 -13 94 -8 180 10
274 68 348 216 l36 71 51 0 c43 0 50 -2 45 -17 -10 -34 -196 -732 -196 -738 0
-3 -21 -5 -48 -5 l-47 0 0 123 c0 120 -1 124 -28 160 -42 56 -96 79 -197 85
l-86 5 -82 -310 c-45 -170 -82 -321 -82 -335 0 -17 10 -34 26 -47 25 -19 40
-21 195 -21 174 0 236 8 329 41 157 57 290 190 373 372 l26 57 50 0 c28 0 51
-3 51 -7 0 -5 -40 -134 -88 -288 l-87 -280 -733 -3 c-402 -1 -732 1 -732 5 0
5 6 28 14 53 l13 45 71 5 c117 8 97 -40 297 709 96 359 175 670 175 692 0 36
-3 41 -35 55 -21 9 -69 14 -125 14 l-92 0 7 33 c4 17 11 42 16 55 l9 22 725 0
c570 0 725 -3 725 -12z m1710 -3 c0 -8 -20 -129 -45 -268 -25 -140 -45 -257
-45 -260 0 -4 -24 -7 -52 -7 l-53 0 0 108 c0 101 -2 113 -30 167 -36 71 -93
118 -173 142 -45 14 -94 18 -229 18 -169 0 -172 0 -198 -25 -15 -14 -31 -32
-35 -40 -9 -17 -150 -553 -150 -571 0 -8 34 -10 124 -7 115 4 128 6 189 36 39
19 81 50 103 75 39 44 84 130 84 160 0 14 9 17 56 17 53 0 56 -1 50 -22 -3
-13 -49 -186 -103 -385 l-97 -363 -54 0 c-46 0 -53 2 -48 16 15 40 23 144 15
189 -14 72 -44 114 -105 142 -46 21 -64 23 -150 21 l-99 -3 -82 -310 c-45
-170 -83 -320 -83 -332 0 -12 12 -31 26 -42 23 -18 41 -21 140 -21 74 0 114
-4 114 -11 0 -5 -5 -30 -11 -55 l-11 -44 -425 0 -425 0 6 26 c4 15 10 39 13
55 5 28 7 29 70 29 79 0 114 17 136 67 9 21 93 326 187 678 138 514 169 646
163 670 -11 40 -53 54 -166 54 -79 1 -88 3 -83 19 3 9 8 31 12 47 4 17 9 33
11 38 2 4 330 7 729 7 639 0 724 -2 724 -15z m-3144 -2572 c-55 -185 -318
-1190 -319 -1223 -2 -39 1 -45 19 -48 26 -4 89 59 145 145 l41 62 34 -16 c19
-9 34 -20 34 -24 0 -16 -101 -158 -141 -197 -62 -61 -153 -103 -221 -104 -75
-1 -115 22 -141 80 -18 43 -19 54 -9 122 6 41 67 284 135 540 68 256 127 481
131 500 10 55 -9 73 -83 78 l-62 4 7 32 c3 17 9 34 13 39 4 4 88 11 187 16 98
4 192 9 207 10 23 1 27 -3 23 -16z m624 -21 c52 -26 80 -74 80 -139 0 -48 -4
-58 -37 -94 -79 -83 -197 -67 -250 35 -20 38 -13 118 13 153 44 59 128 79 194
45z m-2979 -456 c132 -40 228 -132 265 -255 19 -62 18 -195 -2 -262 -39 -133
-132 -263 -238 -331 -86 -55 -171 -79 -286 -80 -143 -1 -222 27 -304 107 -184
178 -141 523 89 714 59 49 129 85 205 105 71 19 212 20 271 2z m5275 -14 c145
-75 150 -241 11 -369 -77 -71 -198 -120 -394 -158 l-93 -19 0 -62 c0 -76 11
-109 52 -151 81 -84 215 -65 352 52 l67 56 30 -22 31 -22 -49 -49 c-112 -114
-235 -169 -383 -170 -104 -1 -181 20 -241 66 -90 68 -130 157 -131 291 0 100
14 160 57 250 74 155 227 275 405 320 83 21 234 15 286 -13z m-1164 -2 c4 0
23 -14 43 -31 90 -79 90 -140 0 -479 -36 -138 -63 -254 -60 -260 11 -18 50
-11 77 15 32 30 77 94 107 153 19 38 24 42 49 36 48 -12 49 -21 7 -101 -118
-231 -341 -314 -449 -169 -35 47 -27 130 38 380 31 120 56 236 56 257 0 104
-98 100 -205 -8 -120 -121 -187 -258 -264 -538 l-38 -140 -119 -7 c-65 -4
-120 -5 -123 -3 -2 3 40 169 93 370 59 220 95 373 91 386 -8 25 -43 39 -96 39
-34 0 -39 3 -39 23 0 12 3 32 6 43 6 21 13 22 200 29 107 4 197 6 199 3 2 -2
-11 -67 -30 -143 -18 -77 -32 -141 -31 -143 2 -1 20 23 40 53 44 64 170 186
218 211 49 26 136 42 183 33 22 -5 43 -8 47 -9z m-2784 -9 c68 -35 102 -95
102 -181 0 -59 -4 -75 -76 -346 -30 -111 -54 -211 -54 -223 0 -17 6 -21 29
-21 37 0 93 61 141 152 18 35 34 65 36 66 4 5 74 -18 74 -25 0 -3 -19 -41 -42
-85 -98 -188 -263 -281 -388 -216 -94 48 -101 122 -34 373 69 263 79 318 64
355 -18 43 -49 48 -115 16 -66 -33 -133 -105 -199 -216 -60 -102 -93 -186
-146 -377 l-42 -150 -121 -6 c-67 -3 -122 -5 -123 -4 -2 1 40 161 92 356 52
194 94 366 94 381 0 39 -33 60 -92 60 l-47 0 6 38 c3 20 8 40 12 44 3 3 94 9
202 13 l197 8 -34 -139 c-18 -77 -33 -143 -34 -147 0 -5 27 28 61 73 68 90
149 161 224 196 64 30 159 33 213 5z m1662 5 c0 -2 -42 -160 -94 -352 -115
-427 -111 -408 -92 -423 30 -25 108 44 170 151 15 27 32 50 37 53 4 3 22 -1
39 -10 l31 -16 -27 -47 c-100 -172 -219 -263 -346 -265 -68 0 -103 19 -130 74
-30 58 -22 119 52 398 39 145 70 274 70 287 0 34 -36 54 -98 54 -51 0 -53 1
-46 23 22 70 14 66 126 70 193 6 308 7 308 3z"/>
<path d="M965 2415 c-44 -24 -64 -44 -100 -100 -102 -160 -172 -499 -122 -593
49 -92 184 -96 259 -9 87 102 178 377 178 536 0 61 -24 124 -59 155 -29 27
-116 32 -156 11z"/>
<path d="M6176 2415 c-48 -17 -63 -30 -103 -93 -39 -60 -77 -157 -98 -245
l-14 -59 42 6 c63 10 159 58 202 102 78 80 110 209 65 266 -25 33 -49 38 -94
23z"/>
</g>
</svg>
